# xmcd
#
# Track frame offsets:
#	150
#	15807
#	26405
#	39220
#	52967
#	64120
#	79082
#	90555
#	102630
#	114952
#	127407
#	139882
#
# Disc length: 2024 seconds
#
# Revision: 1
# Processed by: cddbd v1.4PL0 Copyright (c) Steve Scherf et al.
# Submitted via: audiograbber 1.81.03
#
DISCID=9307e60c
DTITLE=Patsy Riggir - Are You Lonely
DYEAR=1982
DGENRE=Country
TTITLE0=Beautiful Lady
TTITLE1=Isn't That Just Like Love
TTITLE2=Free To Be Lonely Again
TTITLE3=All My Cloudy Days Are Gone
TTITLE4=Bright Lights And Country Music
TTITLE5=I Want To Wake Up With You
TTITLE6=Sailor
TTITLE7=For No Reason At All
TTITLE8=Silver Wings
TTITLE9=We've Got All That We Need
TTITLE10=Family Tree
TTITLE11=Why Must The Ending Be So Sad
EXTD=
EXTT0=
EXTT1=
EXTT2=
EXTT3=
EXTT4=
EXTT5=
EXTT6=
EXTT7=
EXTT8=
EXTT9=
EXTT10=
EXTT11=
PLAYORDER=
